<?xml version="1.0" encoding="UTF-8"?>
<svg xmlns="http://www.w3.org/2000/svg" xmlns:xlink="http://www.w3.org/1999/xlink" width="25pt" height="120pt" viewBox="0 0 25 120" version="1.1">
<g id="surface1">
<path style=" stroke:none;fill-rule:nonzero;fill:rgb(30.980392%,30.980392%,30.980392%);fill-opacity:1;" d="M 6.929688 118.347656 C 5.351562 117.207031 4.824219 116.445312 4.824219 115.300781 C 4.824219 114.539062 4.429688 113.332031 3.949219 112.699219 C 3.113281 111.617188 3.070312 110.730469 3.070312 88.636719 L 3.070312 65.714844 L 1.492188 50.09375 C -0.4375 31.046875 -0.4375 31.109375 3.859375 30.285156 L 6.578125 29.714844 L 6.578125 26.347656 C 6.578125 23.683594 6.753906 22.730469 7.414062 22.09375 C 8.15625 21.332031 8.421875 19.617188 9.078125 10.730469 L 9.867188 0.316406 L 18.640625 0.316406 L 19.605469 12.699219 C 20.132812 19.492188 20.570312 26.667969 20.570312 28.636719 C 20.613281 31.046875 20.832031 32.507812 21.273438 33.015625 C 21.621094 33.460938 21.929688 34.476562 21.929688 35.300781 C 21.929688 36.0625 22.105469 36.953125 22.367188 37.144531 C 22.9375 37.652344 22.9375 50.160156 22.367188 50.160156 C 22.105469 50.160156 22.015625 50.792969 22.191406 51.683594 C 22.324219 52.570312 22.324219 53.585938 22.148438 53.96875 C 21.929688 54.476562 21.796875 61.269531 21.929688 67.300781 C 21.929688 67.808594 21.84375 70.160156 21.753906 72.570312 C 21.667969 74.921875 21.753906 76.824219 21.972656 76.824219 C 22.542969 76.824219 22.457031 79.617188 21.886719 80.445312 C 21.097656 81.585938 22.367188 83.808594 23.773438 83.808594 L 25 83.808594 L 25 94.601562 L 23.246094 94.601562 C 21.316406 94.601562 21.007812 95.554688 22.015625 98.730469 C 22.414062 100.0625 22.414062 101.96875 21.972656 107.492188 C 21.710938 111.429688 21.273438 114.855469 21.007812 115.238281 C 20.789062 115.554688 20.613281 116.382812 20.613281 117.144531 C 20.613281 118.347656 20.21875 118.539062 15.878906 119.238281 C 9.648438 120.253906 9.34375 120.191406 6.929688 118.347656 Z M 6.929688 118.347656 "/>
<path style=" stroke:none;fill-rule:nonzero;fill:rgb(41.568627%,41.568627%,41.568627%);fill-opacity:1;" d="M 7.148438 117.90625 L 5.261719 116.570312 L 5.21875 99.109375 C 5.21875 87.363281 5 79.9375 4.605469 76.507812 C 4.253906 73.714844 4.078125 72.699219 4.210938 74.285156 C 4.34375 75.871094 4.515625 85.269531 4.648438 95.238281 C 4.867188 112 4.867188 113.207031 4.167969 112.382812 C 3.507812 111.617188 3.464844 109.269531 3.550781 88.953125 L 3.597656 66.347656 L 1.972656 50.285156 C 0.65625 37.398438 0.4375 34.03125 0.878906 33.652344 C 1.183594 33.398438 2.71875 32.953125 4.296875 32.699219 C 8.378906 32.0625 8.332031 32.128906 8.332031 27.871094 C 8.332031 25.523438 8.507812 24.128906 8.816406 24.128906 C 9.121094 24.128906 9.210938 23.429688 9.078125 22.414062 C 8.949219 21.398438 9.121094 16.128906 9.5625 10.667969 L 10.261719 0.636719 L 18.246094 0.636719 L 19.035156 11.492188 C 19.648438 19.429688 19.691406 22.539062 19.34375 23.046875 C 18.597656 24.128906 18.726562 32.699219 19.515625 33.652344 C 19.914062 34.09375 20.175781 35.492188 20.175781 36.890625 L 20.175781 39.363281 L 15.351562 39.363281 L 15.351562 50.160156 L 17.761719 50.160156 C 20.042969 50.160156 20.175781 50.222656 20.175781 51.746094 C 20.175781 53.015625 19.957031 53.332031 19.078125 53.332031 C 18.507812 53.332031 17.851562 53.839844 17.632812 54.414062 C 17.367188 54.984375 17.324219 60 17.457031 66.160156 C 17.632812 73.96875 17.542969 76.824219 17.148438 76.824219 C 16.492188 76.824219 16.535156 80.824219 17.191406 81.777344 C 17.5 82.222656 18.289062 82.539062 18.949219 82.539062 C 19.605469 82.539062 20.175781 82.855469 20.175781 83.175781 C 20.175781 83.554688 19.605469 83.808594 18.859375 83.808594 L 17.542969 83.808594 L 17.542969 94.601562 L 18.859375 94.601562 C 20.132812 94.601562 20.175781 94.667969 20.175781 97.714844 C 20.175781 99.492188 20 101.078125 19.738281 101.269531 C 19.515625 101.460938 19.296875 104.191406 19.296875 107.300781 C 19.296875 110.414062 19.515625 113.144531 19.738281 113.332031 C 20.261719 113.777344 20.351562 118.09375 19.824219 118.09375 C 19.648438 118.09375 17.542969 99.046875 15.175781 75.746094 C 12.808594 52.382812 10.703125 33.078125 10.527344 32.824219 C 10.175781 32.253906 2.148438 33.523438 1.316406 34.285156 C 1.007812 34.539062 2.191406 47.871094 5.042969 75.617188 C 7.324219 98.09375 9.253906 117.144531 9.34375 117.96875 C 9.5625 119.683594 9.472656 119.683594 7.148438 117.90625 Z M 16.226562 31.109375 C 16.226562 29.269531 16.183594 29.207031 14.035156 29.207031 C 11.886719 29.207031 11.84375 29.269531 11.84375 31.109375 C 11.84375 32.953125 11.886719 33.015625 14.035156 33.015625 C 16.183594 33.015625 16.226562 32.953125 16.226562 31.109375 Z M 16.226562 31.109375 "/>
<path style=" stroke:none;fill-rule:nonzero;fill:rgb(41.568627%,41.568627%,41.568627%);fill-opacity:1;" d="M 9.914062 118.667969 C 9.648438 117.460938 1.796875 39.617188 1.667969 36.824219 L 1.535156 34.667969 L 5.832031 33.777344 C 8.203125 33.269531 10.21875 33.015625 10.261719 33.078125 C 10.4375 33.332031 18.859375 116.128906 18.859375 117.207031 C 18.859375 117.96875 17.585938 118.347656 12.851562 119.109375 C 10.703125 119.429688 10.042969 119.363281 9.914062 118.667969 Z M 9.914062 118.667969 "/>
<path style=" stroke:none;fill-rule:nonzero;fill:rgb(41.568627%,41.568627%,41.568627%);fill-opacity:1;" d="M 17.984375 89.207031 L 17.984375 84.445312 L 24.5625 84.445312 L 24.5625 93.96875 L 17.984375 93.96875 Z M 17.984375 89.207031 "/>
<path style=" stroke:none;fill-rule:nonzero;fill:rgb(41.568627%,41.568627%,41.568627%);fill-opacity:1;" d="M 18.859375 69.207031 C 18.859375 67.9375 19.078125 67.300781 19.515625 67.300781 C 19.957031 67.300781 20.175781 67.9375 20.175781 69.207031 C 20.175781 70.476562 19.957031 71.109375 19.515625 71.109375 C 19.078125 71.109375 18.859375 70.476562 18.859375 69.207031 Z M 18.859375 69.207031 "/>
<path style=" stroke:none;fill-rule:nonzero;fill:rgb(41.568627%,41.568627%,41.568627%);fill-opacity:1;" d="M 15.789062 44.761719 L 15.789062 40 L 22.367188 40 L 22.367188 49.523438 L 15.789062 49.523438 Z M 15.789062 44.761719 "/>
<path style=" stroke:none;fill-rule:nonzero;fill:rgb(61.176471%,61.176471%,61.176471%);fill-opacity:1;" d="M 4.078125 112.316406 C 3.640625 111.683594 3.507812 106.730469 3.550781 91.492188 C 3.597656 71.871094 3.640625 71.554688 4.210938 77.144531 C 5.042969 84.699219 4.914062 113.523438 4.078125 112.316406 Z M 4.078125 112.316406 "/>
<path style=" stroke:none;fill-rule:nonzero;fill:rgb(61.176471%,61.176471%,61.176471%);fill-opacity:1;" d="M 19.738281 109.523438 C 19.738281 109.015625 20.132812 108.570312 20.613281 108.570312 C 21.097656 108.570312 21.492188 109.015625 21.492188 109.523438 C 21.492188 110.03125 21.097656 110.476562 20.613281 110.476562 C 20.132812 110.476562 19.738281 110.03125 19.738281 109.523438 Z M 19.738281 109.523438 "/>
<path style=" stroke:none;fill-rule:nonzero;fill:rgb(61.176471%,61.176471%,61.176471%);fill-opacity:1;" d="M 19.738281 103.683594 C 19.78125 101.714844 20.65625 99.683594 21.449219 99.683594 C 21.710938 99.683594 21.929688 100.824219 21.929688 102.539062 C 21.929688 105.144531 21.84375 105.398438 20.832031 105.398438 C 19.914062 105.398438 19.738281 105.078125 19.738281 103.683594 Z M 19.738281 103.683594 "/>
<path style=" stroke:none;fill-rule:nonzero;fill:rgb(61.176471%,61.176471%,61.176471%);fill-opacity:1;" d="M 17.414062 80.253906 C 17.238281 80 17.105469 79.238281 17.105469 78.601562 C 17.105469 77.269531 17.984375 77.078125 18.773438 78.222656 C 19.210938 78.855469 19.515625 78.855469 20.175781 78.222656 C 21.449219 77.078125 22.015625 77.269531 21.84375 78.921875 C 21.710938 80.128906 21.402344 80.316406 19.738281 80.507812 C 18.640625 80.636719 17.585938 80.507812 17.414062 80.253906 Z M 17.414062 80.253906 "/>
<path style=" stroke:none;fill-rule:nonzero;fill:rgb(61.176471%,61.176471%,61.176471%);fill-opacity:1;" d="M 18.550781 77.332031 C 18.113281 76.507812 17.5 56.253906 17.851562 54.792969 C 18.15625 53.585938 20.921875 53.777344 21.226562 54.984375 C 21.667969 56.570312 21.007812 76.382812 20.484375 77.332031 C 20.261719 77.714844 19.824219 78.09375 19.515625 78.09375 C 19.210938 78.09375 18.773438 77.714844 18.550781 77.332031 Z M 20.394531 66.03125 C 20.394531 56.316406 20.394531 56.191406 19.429688 56 C 18.421875 55.808594 18.421875 55.808594 18.421875 65.585938 C 18.421875 70.921875 18.550781 75.554688 18.726562 75.808594 C 18.902344 76.0625 19.34375 76.128906 19.738281 76.0625 C 20.308594 75.871094 20.394531 74.414062 20.394531 66.03125 Z M 20.394531 66.03125 "/>
<path style=" stroke:none;fill-rule:nonzero;fill:rgb(61.176471%,61.176471%,61.176471%);fill-opacity:1;" d="M 18.859375 73.652344 C 18.859375 72.382812 19.078125 71.746094 19.515625 71.746094 C 19.957031 71.746094 20.175781 72.382812 20.175781 73.652344 C 20.175781 74.921875 19.957031 75.554688 19.515625 75.554688 C 19.078125 75.554688 18.859375 74.921875 18.859375 73.652344 Z M 18.859375 73.652344 "/>
<path style=" stroke:none;fill-rule:nonzero;fill:rgb(61.176471%,61.176471%,61.176471%);fill-opacity:1;" d="M 18.859375 64.761719 C 18.859375 63.492188 19.078125 62.855469 19.515625 62.855469 C 19.957031 62.855469 20.175781 63.492188 20.175781 64.761719 C 20.175781 66.03125 19.957031 66.667969 19.515625 66.667969 C 19.078125 66.667969 18.859375 66.03125 18.859375 64.761719 Z M 18.859375 64.761719 "/>
<path style=" stroke:none;fill-rule:nonzero;fill:rgb(61.176471%,61.176471%,61.176471%);fill-opacity:1;" d="M 18.859375 61.398438 C 18.859375 60.953125 19.121094 60.191406 19.429688 59.746094 C 19.867188 59.046875 19.867188 58.921875 19.429688 59.300781 C 19.121094 59.554688 18.859375 59.429688 18.859375 59.046875 C 18.859375 57.585938 19.957031 58.855469 20.085938 60.507812 C 20.175781 61.714844 20.042969 62.222656 19.5625 62.222656 C 19.167969 62.222656 18.859375 61.839844 18.859375 61.398438 Z M 18.859375 61.398438 "/>
<path style=" stroke:none;fill-rule:nonzero;fill:rgb(61.176471%,61.176471%,61.176471%);fill-opacity:1;" d="M 18.859375 57.144531 C 18.859375 56.824219 19.167969 56.507812 19.515625 56.507812 C 19.867188 56.507812 20.175781 56.824219 20.175781 57.144531 C 20.175781 57.523438 19.867188 57.777344 19.515625 57.777344 C 19.167969 57.777344 18.859375 57.523438 18.859375 57.144531 Z M 18.859375 57.144531 "/>
<path style=" stroke:none;fill-rule:nonzero;fill:rgb(61.176471%,61.176471%,61.176471%);fill-opacity:1;" d="M 1.007812 32.128906 C 1.097656 31.746094 2.414062 31.175781 3.992188 30.792969 L 6.796875 30.160156 L 7.015625 26.347656 C 7.191406 23.363281 7.414062 22.476562 8.027344 22.347656 C 8.421875 22.222656 8.773438 22.414062 8.773438 22.792969 C 8.773438 23.175781 8.597656 23.492188 8.332031 23.492188 C 8.113281 23.492188 7.894531 25.269531 7.808594 27.429688 L 7.675781 31.429688 L 4.253906 32.128906 C 1.886719 32.570312 0.921875 32.570312 1.007812 32.128906 Z M 1.007812 32.128906 "/>
<path style=" stroke:none;fill-rule:nonzero;fill:rgb(94.509804%,90.196078%,0%);fill-opacity:1;" d="M 13.597656 39.683594 C 13.597656 36.0625 13.773438 33.652344 14.035156 33.652344 C 14.296875 33.652344 14.472656 35.871094 14.472656 39.046875 C 14.472656 42.222656 14.648438 44.445312 14.914062 44.445312 C 15.175781 44.445312 15.351562 44.761719 15.351562 45.078125 C 15.351562 45.460938 14.957031 45.714844 14.472656 45.714844 C 13.640625 45.714844 13.597656 45.269531 13.597656 39.683594 Z M 13.597656 39.683594 "/>
<path style=" stroke:none;fill-rule:nonzero;fill:rgb(94.509804%,90.196078%,0%);fill-opacity:1;" d="M 13.597656 27.300781 C 13.597656 26.601562 13.816406 26.03125 14.035156 26.03125 C 14.296875 26.03125 14.472656 26.601562 14.472656 27.300781 C 14.472656 28 14.296875 28.570312 14.035156 28.570312 C 13.816406 28.570312 13.597656 28 13.597656 27.300781 Z M 13.597656 27.300781 "/>
<path style=" stroke:none;fill-rule:nonzero;fill:rgb(94.509804%,90.196078%,0%);fill-opacity:1;" d="M 13.597656 24.128906 C 13.597656 23.429688 13.816406 22.855469 14.035156 22.855469 C 14.296875 22.855469 14.472656 23.429688 14.472656 24.128906 C 14.472656 24.824219 14.296875 25.398438 14.035156 25.398438 C 13.816406 25.398438 13.597656 24.824219 13.597656 24.128906 Z M 13.597656 24.128906 "/>
<path style=" stroke:none;fill-rule:nonzero;fill:rgb(94.509804%,90.196078%,0%);fill-opacity:1;" d="M 13.597656 20.953125 C 13.597656 20.253906 13.816406 19.683594 14.035156 19.683594 C 14.296875 19.683594 14.472656 20.253906 14.472656 20.953125 C 14.472656 21.652344 14.296875 22.222656 14.035156 22.222656 C 13.816406 22.222656 13.597656 21.652344 13.597656 20.953125 Z M 13.597656 20.953125 "/>
<path style=" stroke:none;fill-rule:nonzero;fill:rgb(94.509804%,90.196078%,0%);fill-opacity:1;" d="M 13.597656 17.777344 C 13.597656 17.078125 13.816406 16.507812 14.035156 16.507812 C 14.296875 16.507812 14.472656 17.078125 14.472656 17.777344 C 14.472656 18.476562 14.296875 19.046875 14.035156 19.046875 C 13.816406 19.046875 13.597656 18.476562 13.597656 17.777344 Z M 13.597656 17.777344 "/>
<path style=" stroke:none;fill-rule:nonzero;fill:rgb(94.509804%,90.196078%,0%);fill-opacity:1;" d="M 13.597656 14.601562 C 13.597656 13.90625 13.816406 13.332031 14.035156 13.332031 C 14.296875 13.332031 14.472656 13.90625 14.472656 14.601562 C 14.472656 15.300781 14.296875 15.871094 14.035156 15.871094 C 13.816406 15.871094 13.597656 15.300781 13.597656 14.601562 Z M 13.597656 14.601562 "/>
<path style=" stroke:none;fill-rule:nonzero;fill:rgb(94.509804%,90.196078%,0%);fill-opacity:1;" d="M 13.597656 11.429688 C 13.597656 10.730469 13.816406 10.160156 14.035156 10.160156 C 14.296875 10.160156 14.472656 10.730469 14.472656 11.429688 C 14.472656 12.128906 14.296875 12.699219 14.035156 12.699219 C 13.816406 12.699219 13.597656 12.128906 13.597656 11.429688 Z M 13.597656 11.429688 "/>
<path style=" stroke:none;fill-rule:nonzero;fill:rgb(94.509804%,90.196078%,0%);fill-opacity:1;" d="M 13.597656 8.253906 C 13.597656 7.554688 13.816406 6.984375 14.035156 6.984375 C 14.296875 6.984375 14.472656 7.554688 14.472656 8.253906 C 14.472656 8.953125 14.296875 9.523438 14.035156 9.523438 C 13.816406 9.523438 13.597656 8.953125 13.597656 8.253906 Z M 13.597656 8.253906 "/>
<path style=" stroke:none;fill-rule:nonzero;fill:rgb(94.509804%,90.196078%,0%);fill-opacity:1;" d="M 13.597656 5.078125 C 13.597656 4.382812 13.816406 3.808594 14.035156 3.808594 C 14.296875 3.808594 14.472656 4.382812 14.472656 5.078125 C 14.472656 5.777344 14.296875 6.347656 14.035156 6.347656 C 13.816406 6.347656 13.597656 5.777344 13.597656 5.078125 Z M 13.597656 5.078125 "/>
<path style=" stroke:none;fill-rule:nonzero;fill:rgb(94.509804%,90.196078%,0%);fill-opacity:1;" d="M 13.597656 1.90625 C 13.597656 1.207031 13.816406 0.636719 14.035156 0.636719 C 14.296875 0.636719 14.472656 1.207031 14.472656 1.90625 C 14.472656 2.601562 14.296875 3.175781 14.035156 3.175781 C 13.816406 3.175781 13.597656 2.601562 13.597656 1.90625 Z M 13.597656 1.90625 "/>
<path style=" stroke:none;fill-rule:nonzero;fill:rgb(88.235294%,88.235294%,88.235294%);fill-opacity:1;" d="M 9.914062 118.667969 C 9.648438 117.460938 1.796875 39.617188 1.667969 36.824219 L 1.535156 34.667969 L 5.832031 33.777344 C 8.203125 33.269531 10.21875 33.015625 10.261719 33.078125 C 10.4375 33.332031 18.859375 116.128906 18.859375 117.207031 C 18.859375 117.96875 17.585938 118.347656 12.851562 119.109375 C 10.703125 119.429688 10.042969 119.363281 9.914062 118.667969 Z M 15.085938 116.824219 C 16.796875 116.445312 18.203125 116.0625 18.246094 116 C 18.421875 115.746094 10.175781 35.492188 9.957031 35.175781 C 9.824219 34.984375 8.070312 35.175781 5.964844 35.617188 C 2.5 36.316406 2.191406 36.507812 2.191406 37.839844 C 2.191406 38.601562 3.992188 56.570312 6.140625 77.777344 C 8.332031 98.984375 10.085938 116.570312 10.085938 116.890625 C 10.085938 117.585938 11.273438 117.585938 15.085938 116.824219 Z M 15.085938 116.824219 "/>
<path style=" stroke:none;fill-rule:nonzero;fill:rgb(88.235294%,88.235294%,88.235294%);fill-opacity:1;" d="M 13.859375 114.539062 C 13.683594 113.652344 13.640625 112.761719 13.726562 112.570312 C 13.859375 112.445312 14.078125 113.078125 14.210938 114.03125 C 14.386719 114.921875 14.429688 115.808594 14.34375 116 C 14.210938 116.128906 13.992188 115.492188 13.859375 114.539062 Z M 13.859375 114.539062 "/>
<path style=" stroke:none;fill-rule:nonzero;fill:rgb(88.235294%,88.235294%,88.235294%);fill-opacity:1;" d="M 13.421875 110.09375 C 13.246094 109.207031 13.203125 108.316406 13.289062 108.128906 C 13.421875 108 13.640625 108.636719 13.773438 109.585938 C 13.949219 110.476562 13.992188 111.363281 13.902344 111.554688 C 13.773438 111.683594 13.550781 111.046875 13.421875 110.09375 Z M 13.421875 110.09375 "/>
<path style=" stroke:none;fill-rule:nonzero;fill:rgb(88.235294%,88.235294%,88.235294%);fill-opacity:1;" d="M 12.984375 105.652344 C 12.808594 104.761719 12.761719 103.871094 12.851562 103.683594 C 12.984375 103.554688 13.203125 104.191406 13.332031 105.144531 C 13.507812 106.03125 13.550781 106.921875 13.464844 107.109375 C 13.332031 107.238281 13.113281 106.601562 12.984375 105.652344 Z M 12.984375 105.652344 "/>
<path style=" stroke:none;fill-rule:nonzero;fill:rgb(88.235294%,88.235294%,88.235294%);fill-opacity:1;" d="M 12.542969 101.207031 C 12.367188 100.316406 12.324219 99.429688 12.414062 99.238281 C 12.542969 99.109375 12.761719 99.746094 12.894531 100.699219 C 13.070312 101.585938 13.113281 102.476562 13.027344 102.667969 C 12.894531 102.792969 12.675781 102.160156 12.542969 101.207031 Z M 12.542969 101.207031 "/>
<path style=" stroke:none;fill-rule:nonzero;fill:rgb(88.235294%,88.235294%,88.235294%);fill-opacity:1;" d="M 12.105469 96.761719 C 11.929688 95.871094 11.886719 94.984375 11.972656 94.792969 C 12.105469 94.667969 12.324219 95.300781 12.457031 96.253906 C 12.632812 97.144531 12.675781 98.03125 12.585938 98.222656 C 12.457031 98.347656 12.238281 97.714844 12.105469 96.761719 Z M 12.105469 96.761719 "/>
<path style=" stroke:none;fill-rule:nonzero;fill:rgb(88.235294%,88.235294%,88.235294%);fill-opacity:1;" d="M 11.667969 92.316406 C 11.492188 91.429688 11.449219 90.539062 11.535156 90.347656 C 11.667969 90.222656 11.886719 90.855469 12.015625 91.808594 C 12.191406 92.699219 12.238281 93.585938 12.148438 93.777344 C 12.015625 93.90625 11.796875 93.269531 11.667969 92.316406 Z M 11.667969 92.316406 "/>
<path style=" stroke:none;fill-rule:nonzero;fill:rgb(88.235294%,88.235294%,88.235294%);fill-opacity:1;" d="M 11.226562 87.871094 C 11.050781 86.984375 11.007812 86.09375 11.097656 85.90625 C 11.226562 85.777344 11.449219 86.414062 11.578125 87.363281 C 11.753906 88.253906 11.796875 89.144531 11.710938 89.332031 C 11.578125 89.460938 11.359375 88.824219 11.226562 87.871094 Z M 11.226562 87.871094 "/>
<path style=" stroke:none;fill-rule:nonzero;fill:rgb(88.235294%,88.235294%,88.235294%);fill-opacity:1;" d="M 10.789062 83.429688 C 10.613281 82.539062 10.570312 81.652344 10.65625 81.460938 C 10.789062 81.332031 11.007812 81.96875 11.140625 82.921875 C 11.316406 83.808594 11.359375 84.699219 11.273438 84.890625 C 11.140625 85.015625 10.921875 84.382812 10.789062 83.429688 Z M 10.789062 83.429688 "/>
<path style=" stroke:none;fill-rule:nonzero;fill:rgb(88.235294%,88.235294%,88.235294%);fill-opacity:1;" d="M 10.351562 78.984375 C 10.175781 78.09375 10.132812 77.207031 10.21875 77.015625 C 10.351562 76.890625 10.570312 77.523438 10.703125 78.476562 C 10.878906 79.363281 10.921875 80.253906 10.832031 80.445312 C 10.703125 80.570312 10.484375 79.9375 10.351562 78.984375 Z M 10.351562 78.984375 "/>
<path style=" stroke:none;fill-rule:nonzero;fill:rgb(88.235294%,88.235294%,88.235294%);fill-opacity:1;" d="M 9.914062 74.539062 C 9.738281 73.652344 9.691406 72.761719 9.78125 72.570312 C 9.914062 72.445312 10.132812 73.078125 10.261719 74.03125 C 10.4375 74.921875 10.484375 75.808594 10.394531 76 C 10.261719 76.128906 10.042969 75.492188 9.914062 74.539062 Z M 9.914062 74.539062 "/>
<path style=" stroke:none;fill-rule:nonzero;fill:rgb(88.235294%,88.235294%,88.235294%);fill-opacity:1;" d="M 9.472656 70.09375 C 9.296875 69.207031 9.253906 68.316406 9.34375 68.128906 C 9.472656 68 9.691406 68.636719 9.824219 69.585938 C 10 70.476562 10.042969 71.363281 9.957031 71.554688 C 9.824219 71.683594 9.605469 71.046875 9.472656 70.09375 Z M 9.472656 70.09375 "/>
<path style=" stroke:none;fill-rule:nonzero;fill:rgb(88.235294%,88.235294%,88.235294%);fill-opacity:1;" d="M 9.035156 65.652344 C 8.859375 64.761719 8.816406 63.871094 8.902344 63.683594 C 9.035156 63.554688 9.253906 64.191406 9.386719 65.144531 C 9.5625 66.03125 9.605469 66.921875 9.515625 67.109375 C 9.386719 67.238281 9.167969 66.601562 9.035156 65.652344 Z M 9.035156 65.652344 "/>
<path style=" stroke:none;fill-rule:nonzero;fill:rgb(88.235294%,88.235294%,88.235294%);fill-opacity:1;" d="M 8.597656 61.207031 C 8.421875 60.316406 8.378906 59.429688 8.464844 59.238281 C 8.597656 59.109375 8.816406 59.746094 8.949219 60.699219 C 9.121094 61.585938 9.167969 62.476562 9.078125 62.667969 C 8.949219 62.792969 8.726562 62.160156 8.597656 61.207031 Z M 8.597656 61.207031 "/>
<path style=" stroke:none;fill-rule:nonzero;fill:rgb(88.235294%,88.235294%,88.235294%);fill-opacity:1;" d="M 8.15625 56.761719 C 7.984375 55.871094 7.9375 54.984375 8.027344 54.792969 C 8.15625 54.667969 8.378906 55.300781 8.507812 56.253906 C 8.683594 57.144531 8.726562 58.03125 8.640625 58.222656 C 8.507812 58.347656 8.289062 57.714844 8.15625 56.761719 Z M 8.15625 56.761719 "/>
<path style=" stroke:none;fill-rule:nonzero;fill:rgb(88.235294%,88.235294%,88.235294%);fill-opacity:1;" d="M 7.71875 52.316406 C 7.542969 51.429688 7.5 50.539062 7.585938 50.347656 C 7.71875 50.222656 7.9375 50.855469 8.070312 51.808594 C 8.246094 52.699219 8.289062 53.585938 8.203125 53.777344 C 8.070312 53.90625 7.851562 53.269531 7.71875 52.316406 Z M 7.71875 52.316406 "/>
<path style=" stroke:none;fill-rule:nonzero;fill:rgb(88.235294%,88.235294%,88.235294%);fill-opacity:1;" d="M 7.28125 47.871094 C 7.105469 46.984375 7.0625 46.09375 7.148438 45.90625 C 7.28125 45.777344 7.5 46.414062 7.632812 47.363281 C 7.808594 48.253906 7.851562 49.144531 7.761719 49.332031 C 7.632812 49.460938 7.414062 48.824219 7.28125 47.871094 Z M 7.28125 47.871094 "/>
<path style=" stroke:none;fill-rule:nonzero;fill:rgb(88.235294%,88.235294%,88.235294%);fill-opacity:1;" d="M 6.84375 43.429688 C 6.667969 42.539062 6.621094 41.652344 6.710938 41.460938 C 6.84375 41.332031 7.0625 41.96875 7.191406 42.921875 C 7.367188 43.808594 7.414062 44.699219 7.324219 44.890625 C 7.191406 45.015625 6.972656 44.382812 6.84375 43.429688 Z M 6.84375 43.429688 "/>
<path style=" stroke:none;fill-rule:nonzero;fill:rgb(88.235294%,88.235294%,88.235294%);fill-opacity:1;" d="M 6.402344 38.984375 C 6.226562 38.09375 6.183594 37.207031 6.273438 37.015625 C 6.402344 36.890625 6.621094 37.523438 6.753906 38.476562 C 6.929688 39.363281 6.972656 40.253906 6.886719 40.445312 C 6.753906 40.570312 6.535156 39.9375 6.402344 38.984375 Z M 6.402344 38.984375 "/>
<path style=" stroke:none;fill-rule:nonzero;fill:rgb(88.235294%,88.235294%,88.235294%);fill-opacity:1;" d="M 20.703125 113.015625 C 20.703125 111.808594 20.789062 111.300781 20.921875 111.9375 C 21.007812 112.507812 21.007812 113.523438 20.921875 114.160156 C 20.789062 114.730469 20.703125 114.222656 20.703125 113.015625 Z M 20.703125 113.015625 "/>
<path style=" stroke:none;fill-rule:nonzero;fill:rgb(88.235294%,88.235294%,88.235294%);fill-opacity:1;" d="M 4.035156 112.253906 C 3.421875 111.363281 3.332031 107.300781 3.902344 107.300781 C 4.121094 107.300781 4.429688 106.539062 4.515625 105.585938 C 4.605469 104.570312 4.738281 105.90625 4.78125 108.445312 C 4.78125 110.921875 4.78125 113.015625 4.691406 113.015625 C 4.605469 113.015625 4.34375 112.699219 4.035156 112.253906 Z M 4.035156 112.253906 "/>
<path style=" stroke:none;fill-rule:nonzero;fill:rgb(88.235294%,88.235294%,88.235294%);fill-opacity:1;" d="M 3.507812 100 C 3.507812 98.414062 3.726562 97.144531 3.992188 97.144531 C 4.210938 97.144531 4.296875 96.824219 4.121094 96.382812 C 3.949219 95.9375 3.726562 90.160156 3.683594 83.492188 C 3.597656 71.617188 3.597656 71.492188 4.167969 76.507812 C 4.515625 79.300781 4.78125 86.347656 4.78125 92.253906 C 4.824219 101.269531 4.738281 102.855469 4.167969 102.855469 C 3.683594 102.855469 3.507812 102.09375 3.507812 100 Z M 3.507812 100 "/>
<path style=" stroke:none;fill-rule:nonzero;fill:rgb(88.235294%,88.235294%,88.235294%);fill-opacity:1;" d="M 20.613281 96.699219 C 20.613281 93.96875 20.832031 94.09375 21.183594 97.015625 C 21.359375 98.160156 21.273438 99.046875 21.050781 99.046875 C 20.789062 99.046875 20.613281 98.03125 20.613281 96.699219 Z M 20.613281 96.699219 "/>
<path style=" stroke:none;fill-rule:nonzero;fill:rgb(88.235294%,88.235294%,88.235294%);fill-opacity:1;" d="M 17.984375 89.207031 L 17.984375 84.445312 L 24.5625 84.445312 L 24.5625 93.96875 L 17.984375 93.96875 Z M 24.121094 89.207031 L 24.121094 85.078125 L 18.421875 85.078125 L 18.421875 93.332031 L 24.121094 93.332031 Z M 24.121094 89.207031 "/>
<path style=" stroke:none;fill-rule:nonzero;fill:rgb(88.235294%,88.235294%,88.235294%);fill-opacity:1;" d="M 20.613281 82.476562 C 20.613281 81.332031 20.703125 81.269531 21.273438 81.90625 C 21.621094 82.347656 21.929688 82.921875 21.929688 83.238281 C 21.929688 83.554688 21.621094 83.808594 21.273438 83.808594 C 20.878906 83.808594 20.613281 83.238281 20.613281 82.476562 Z M 20.613281 82.476562 "/>
<path style=" stroke:none;fill-rule:nonzero;fill:rgb(88.235294%,88.235294%,88.235294%);fill-opacity:1;" d="M 20.921875 53.523438 C 20.484375 52.890625 20.570312 50.160156 21.007812 50.160156 C 21.449219 50.160156 21.929688 51.683594 21.929688 53.078125 C 21.929688 54.03125 21.402344 54.285156 20.921875 53.523438 Z M 20.921875 53.523438 "/>
<path style=" stroke:none;fill-rule:nonzero;fill:rgb(88.235294%,88.235294%,88.235294%);fill-opacity:1;" d="M 15.789062 44.761719 L 15.789062 40 L 22.367188 40 L 22.367188 49.523438 L 15.789062 49.523438 Z M 21.929688 44.761719 L 21.929688 40.636719 L 16.226562 40.636719 L 16.226562 48.890625 L 21.929688 48.890625 Z M 21.929688 44.761719 "/>
<path style=" stroke:none;fill-rule:nonzero;fill:rgb(88.235294%,88.235294%,88.235294%);fill-opacity:1;" d="M 20.613281 36.890625 C 20.613281 35.492188 20.351562 34.09375 19.957031 33.652344 C 19.210938 32.761719 18.992188 23.492188 19.738281 23.492188 C 20 23.492188 20.175781 25.398438 20.175781 27.871094 C 20.175781 30.984375 20.351562 32.445312 20.832031 33.015625 C 21.183594 33.460938 21.492188 34.476562 21.492188 35.300781 C 21.492188 36.0625 21.710938 36.953125 21.929688 37.144531 C 22.71875 37.839844 22.414062 39.363281 21.492188 39.363281 C 20.746094 39.363281 20.613281 38.921875 20.613281 36.890625 Z M 20.613281 36.890625 "/>
<path style=" stroke:none;fill-rule:nonzero;fill:rgb(88.235294%,88.235294%,88.235294%);fill-opacity:1;" d="M 1.050781 32.128906 C 1.140625 31.746094 1.402344 31.492188 1.667969 31.554688 C 1.929688 31.683594 3.203125 31.363281 4.472656 30.855469 L 6.796875 30.03125 L 6.929688 26.414062 C 7.015625 23.9375 7.28125 22.667969 7.71875 22.414062 C 8.550781 21.96875 9.121094 22.792969 8.421875 23.429688 C 8.113281 23.683594 7.808594 25.460938 7.761719 27.683594 L 7.632812 31.429688 L 4.253906 32.128906 C 1.84375 32.570312 0.921875 32.570312 1.050781 32.128906 Z M 1.050781 32.128906 "/>
<path style=" stroke:none;fill-rule:nonzero;fill:rgb(88.235294%,88.235294%,88.235294%);fill-opacity:1;" d="M 12.28125 31.109375 C 12.28125 30.03125 12.585938 29.839844 14.035156 29.839844 C 15.484375 29.839844 15.789062 30.03125 15.789062 31.109375 C 15.789062 32.191406 15.484375 32.382812 14.035156 32.382812 C 12.585938 32.382812 12.28125 32.191406 12.28125 31.109375 Z M 12.28125 31.109375 "/>
<path style=" stroke:none;fill-rule:nonzero;fill:rgb(88.235294%,88.235294%,88.235294%);fill-opacity:1;" d="M 10.527344 6.984375 C 10.527344 6.667969 10.746094 6.347656 10.964844 6.347656 C 11.226562 6.347656 11.402344 5.652344 11.402344 4.761719 C 11.402344 3.871094 11.183594 3.175781 10.921875 3.175781 C 10.570312 3.175781 10.570312 2.855469 10.964844 2.222656 C 11.886719 0.636719 12.28125 1.144531 12.28125 3.808594 C 12.28125 5.207031 12.5 6.347656 12.71875 6.347656 C 12.984375 6.347656 13.15625 6.667969 13.15625 6.984375 C 13.15625 7.363281 12.585938 7.617188 11.84375 7.617188 C 11.140625 7.617188 10.527344 7.363281 10.527344 6.984375 Z M 10.527344 6.984375 "/>
<path style=" stroke:none;fill-rule:nonzero;fill:rgb(88.235294%,88.235294%,88.235294%);fill-opacity:1;" d="M 15.351562 6.984375 C 15.351562 6.667969 15.746094 6.347656 16.226562 6.347656 C 16.710938 6.347656 17.105469 6.09375 17.105469 5.714844 C 17.105469 5.398438 16.710938 5.078125 16.226562 5.078125 C 15.746094 5.078125 15.351562 4.824219 15.351562 4.445312 C 15.351562 4.128906 15.746094 3.808594 16.226562 3.808594 C 16.710938 3.808594 17.105469 3.554688 17.105469 3.175781 C 17.105469 2.855469 16.710938 2.539062 16.226562 2.539062 C 15.746094 2.539062 15.351562 2.285156 15.351562 1.90625 C 15.351562 1.585938 15.964844 1.269531 16.667969 1.269531 C 17.9375 1.269531 17.984375 1.332031 17.984375 4.445312 C 17.984375 7.554688 17.9375 7.617188 16.667969 7.617188 C 15.964844 7.617188 15.351562 7.363281 15.351562 6.984375 Z M 15.351562 6.984375 "/>
</g>
</svg>
