<?xml version="1.0" encoding="UTF-8"?>
<svg xmlns="http://www.w3.org/2000/svg" xmlns:xlink="http://www.w3.org/1999/xlink" width="20pt" height="70pt" viewBox="0 0 20 70" version="1.1">
<g id="surface1">
<path style=" stroke:none;fill-rule:nonzero;fill:rgb(23.921569%,23.921569%,23.921569%);fill-opacity:1;" d="M 5.601562 68.671875 C 4.5 67.480469 3.101562 50.890625 2.898438 38.148438 C 2.800781 23.101562 3.898438 14.351562 6.898438 6.789062 C 9.101562 1.191406 10.398438 -0.0703125 11.800781 1.820312 C 13.300781 3.921875 16.800781 14.558594 17.5 19.601562 C 19 29.191406 17.300781 66.5 15.398438 68.671875 C 15.199219 68.949219 13 69.160156 10.5 69.160156 C 8 69.160156 5.800781 68.949219 5.601562 68.671875 Z M 5.601562 68.671875 "/>
<path style=" stroke:none;fill-rule:nonzero;fill:rgb(46.666667%,46.666667%,46.666667%);fill-opacity:1;" d="M 4.601562 57.261719 C 4.300781 53.761719 4.101562 46.621094 4.199219 41.371094 L 4.398438 31.851562 L 5 43.398438 C 5.398438 49.769531 5.800781 56.628906 5.898438 58.660156 L 6 62.300781 L 15 62.300781 L 15.101562 58.660156 C 15.199219 56.628906 15.601562 49.769531 16 43.398438 L 16.601562 31.851562 L 16.800781 41.371094 C 16.898438 46.621094 16.699219 53.761719 16.398438 57.261719 L 15.699219 63.699219 L 5.300781 63.699219 Z M 4.601562 57.261719 "/>
<path style=" stroke:none;fill-rule:nonzero;fill:rgb(46.666667%,46.666667%,46.666667%);fill-opacity:1;" d="M 7 52.851562 C 7 51.308594 7.398438 51.101562 10.5 51.101562 C 13.601562 51.101562 14 51.308594 14 52.851562 C 14 54.390625 13.601562 54.601562 10.5 54.601562 C 7.398438 54.601562 7 54.390625 7 52.851562 Z M 7 52.851562 "/>
<path style=" stroke:none;fill-rule:nonzero;fill:rgb(46.666667%,46.666667%,46.666667%);fill-opacity:1;" d="M 6.199219 40.109375 L 6.398438 30.449219 L 6.699219 38.359375 C 6.898438 42.769531 7.5 46.199219 8 46.199219 C 8.601562 46.199219 9 46.972656 9 47.949219 C 9 49.070312 8.398438 49.699219 7.5 49.699219 C 6.199219 49.699219 6 48.230469 6.199219 40.109375 Z M 6.199219 40.109375 "/>
<path style=" stroke:none;fill-rule:nonzero;fill:rgb(46.666667%,46.666667%,46.666667%);fill-opacity:1;" d="M 12 47.949219 C 12 46.972656 12.398438 46.199219 13 46.199219 C 13.5 46.199219 14.101562 42.769531 14.300781 38.359375 L 14.601562 30.449219 L 14.800781 40.109375 C 15 48.230469 14.800781 49.699219 13.5 49.699219 C 12.601562 49.699219 12 49.070312 12 47.949219 Z M 12 47.949219 "/>
<path style=" stroke:none;fill-rule:nonzero;fill:rgb(46.666667%,46.666667%,46.666667%);fill-opacity:1;" d="M 8.398438 37.449219 C 8.398438 33.25 8.5 31.570312 8.699219 33.808594 C 8.898438 36.050781 8.898438 39.480469 8.699219 41.511719 C 8.5 43.539062 8.398438 41.722656 8.398438 37.449219 Z M 8.398438 37.449219 "/>
<path style=" stroke:none;fill-rule:nonzero;fill:rgb(46.666667%,46.666667%,46.666667%);fill-opacity:1;" d="M 12.398438 37.449219 C 12.398438 33.25 12.5 31.570312 12.699219 33.808594 C 12.898438 36.050781 12.898438 39.480469 12.699219 41.511719 C 12.5 43.539062 12.398438 41.722656 12.398438 37.449219 Z M 12.398438 37.449219 "/>
<path style=" stroke:none;fill-rule:nonzero;fill:rgb(46.666667%,46.666667%,46.666667%);fill-opacity:1;" d="M 3 26.25 C 3 25.691406 3.898438 25.199219 5 25.199219 C 6.101562 25.199219 7 25.691406 7 26.25 C 7 26.808594 6.101562 27.300781 5 27.300781 C 3.898438 27.300781 3 26.808594 3 26.25 Z M 3 26.25 "/>
<path style=" stroke:none;fill-rule:nonzero;fill:rgb(46.666667%,46.666667%,46.666667%);fill-opacity:1;" d="M 14 26.25 C 14 25.691406 14.898438 25.199219 16 25.199219 C 17.101562 25.199219 18 25.691406 18 26.25 C 18 26.808594 17.101562 27.300781 16 27.300781 C 14.898438 27.300781 14 26.808594 14 26.25 Z M 14 26.25 "/>
<path style=" stroke:none;fill-rule:nonzero;fill:rgb(46.666667%,46.666667%,46.666667%);fill-opacity:1;" d="M 8 25.898438 C 8 25.550781 9.101562 25.199219 10.5 25.199219 C 11.898438 25.199219 13 25.550781 13 25.898438 C 13 26.320312 11.898438 26.601562 10.5 26.601562 C 9.101562 26.601562 8 26.320312 8 25.898438 Z M 8 25.898438 "/>
<path style=" stroke:none;fill-rule:nonzero;fill:rgb(46.666667%,46.666667%,46.666667%);fill-opacity:1;" d="M 4.601562 19.601562 C 5.398438 12.460938 5.300781 12.601562 10.5 12.601562 C 13.300781 12.601562 15.199219 12.949219 15.398438 13.511719 C 16.101562 14.839844 16.898438 24.921875 16.398438 24.011719 C 15.601562 22.820312 5.398438 22.820312 4.601562 24.011719 C 4.398438 24.429688 4.398438 22.472656 4.601562 19.601562 Z M 15 17.851562 L 15 14.699219 L 6 14.699219 L 6 21 L 15 21 Z M 15 17.851562 "/>
<path style=" stroke:none;fill-rule:nonzero;fill:rgb(46.666667%,46.666667%,46.666667%);fill-opacity:1;" d="M 8.300781 24.011719 C 9.800781 23.871094 12 23.871094 13.300781 24.011719 C 14.5 24.148438 13.300781 24.289062 10.5 24.289062 C 7.800781 24.289062 6.699219 24.148438 8.300781 24.011719 Z M 8.300781 24.011719 "/>
<path style=" stroke:none;fill-rule:nonzero;fill:rgb(46.666667%,46.666667%,46.666667%);fill-opacity:1;" d="M 7.5 8.398438 C 7.898438 7.070312 8.601562 4.828125 9.199219 3.5 L 10.300781 1.050781 L 11.5 3.148438 C 13 5.738281 14.398438 11.550781 13.101562 9.449219 C 12.601562 8.679688 11.898438 7.140625 11.5 6.019531 C 11 4.410156 10.699219 4.128906 9.898438 4.972656 C 9.398438 5.460938 9 6.578125 9 7.351562 C 9 8.121094 8.5 9.238281 7.898438 9.800781 C 7.199219 10.570312 7 10.222656 7.5 8.398438 Z M 7.5 8.398438 "/>
<path style=" stroke:none;fill-rule:nonzero;fill:rgb(46.666667%,46.666667%,46.666667%);fill-opacity:1;" d="M 9.601562 8.609375 C 10.398438 6.230469 11 5.671875 11 7.210938 C 11 7.769531 11.300781 8.75 11.601562 9.378906 C 12 10.148438 11.699219 10.5 10.601562 10.5 C 9.300781 10.5 9.101562 10.078125 9.601562 8.609375 Z M 9.601562 8.609375 "/>
<path style=" stroke:none;fill-rule:nonzero;fill:rgb(83.137255%,83.137255%,83.137255%);fill-opacity:1;" d="M 6 66.148438 C 6 64.539062 6.398438 64.398438 10.5 64.398438 C 14.601562 64.398438 15 64.539062 15 66.148438 C 15 67.761719 14.601562 67.898438 10.5 67.898438 C 6.398438 67.898438 6 67.761719 6 66.148438 Z M 6 66.148438 "/>
<path style=" stroke:none;fill-rule:nonzero;fill:rgb(83.137255%,83.137255%,83.137255%);fill-opacity:1;" d="M 8.300781 11.410156 C 9.800781 11.269531 12 11.269531 13.300781 11.410156 C 14.5 11.550781 13.300781 11.691406 10.5 11.691406 C 7.800781 11.691406 6.699219 11.550781 8.300781 11.410156 Z M 8.300781 11.410156 "/>
</g>
</svg>
