<?xml version="1.0" encoding="UTF-8"?>
<svg xmlns="http://www.w3.org/2000/svg" xmlns:xlink="http://www.w3.org/1999/xlink" width="22pt" height="70pt" viewBox="0 0 22 70" version="1.1">
<g id="surface1">
<path style=" stroke:none;fill-rule:nonzero;fill:rgb(25.490196%,25.490196%,25.490196%);fill-opacity:1;" d="M 10.3125 68.722656 C 10.0625 68.179688 9.1875 67.835938 8.1875 67.789062 L 6.5625 67.738281 L 8.4375 67.246094 C 9.5 66.953125 10.375 66.65625 10.4375 66.609375 C 10.5625 66.558594 10.1875 65.476562 9.625 64.25 L 8.625 61.9375 L 4.625 61.9375 C 0.8125 61.9375 0.625 61.886719 0.625 60.710938 C 0.625 59.777344 1.1875 59.332031 3.375 58.546875 C 6.6875 57.417969 7.125 56.480469 6.3125 52.746094 C 5.875 51.074219 5.625 41.832031 5.625 29.640625 C 5.625 11.945312 5.5 9.339844 4.6875 9.339844 C 4.1875 9.339844 3.75 8.898438 3.75 8.355469 C 3.75 7.816406 4.125 7.375 4.625 7.375 C 5.6875 7.375 6.25 6.292969 6.25 4.375 C 6.25 2.554688 8.75 0.492188 10.9375 0.492188 C 13.125 0.492188 15.625 2.554688 15.625 4.375 C 15.625 6.292969 16.1875 7.375 17.25 7.375 C 17.75 7.375 18.125 7.816406 18.125 8.355469 C 18.125 8.898438 17.6875 9.339844 17.1875 9.339844 C 16.375 9.339844 16.25 11.945312 16.25 29.640625 C 16.25 41.832031 16 51.074219 15.5625 52.746094 C 14.75 56.480469 15.1875 57.417969 18.5 58.546875 C 20.6875 59.332031 21.25 59.777344 21.25 60.710938 C 21.25 61.886719 21.0625 61.9375 17.25 61.9375 L 13.25 61.9375 L 12.25 64.25 C 11.6875 65.476562 11.3125 66.558594 11.4375 66.609375 C 11.5 66.65625 12.4375 66.953125 13.4375 67.246094 C 15.125 67.6875 15.1875 67.738281 13.8125 67.789062 C 13 67.835938 11.9375 68.230469 11.5 68.722656 C 10.75 69.507812 10.6875 69.507812 10.3125 68.722656 Z M 10.3125 68.722656 "/>
<path style=" stroke:none;fill-rule:nonzero;fill:rgb(42.745098%,42.745098%,42.745098%);fill-opacity:1;" d="M 9.8125 63.117188 C 8.9375 60.613281 8.75 58.054688 8.8125 46.894531 L 8.9375 33.671875 L 10.9375 46.453125 L 11.9375 40.0625 L 13 33.671875 L 13 47.191406 C 13.0625 58.691406 12.875 61.101562 11.9375 63.414062 L 10.875 66.117188 Z M 11.0625 57.90625 C 10.9375 57.023438 10.8125 57.613281 10.8125 59.234375 C 10.8125 60.855469 10.9375 61.59375 11.0625 60.855469 C 11.1875 60.121094 11.1875 58.792969 11.0625 57.90625 Z M 11.0625 57.90625 "/>
<path style=" stroke:none;fill-rule:nonzero;fill:rgb(42.745098%,42.745098%,42.745098%);fill-opacity:1;" d="M 1.3125 60.710938 C 1.25 60.023438 2 59.480469 3.8125 58.890625 L 6.3125 58.054688 L 7.1875 59.628906 C 7.625 60.511719 7.875 61.296875 7.6875 61.445312 C 7.5 61.59375 7.1875 61.398438 7.0625 61.101562 C 6.875 60.710938 5.75 60.464844 4.375 60.464844 C 3.0625 60.464844 1.8125 60.757812 1.6875 61.101562 C 1.5 61.398438 1.3125 61.25 1.3125 60.710938 Z M 1.3125 60.710938 "/>
<path style=" stroke:none;fill-rule:nonzero;fill:rgb(42.745098%,42.745098%,42.745098%);fill-opacity:1;" d="M 14.5 59.921875 C 15.4375 58.25 15.5 58.203125 18.4375 59.039062 C 20 59.480469 20.625 59.972656 20.5625 60.710938 C 20.5625 61.25 20.375 61.398438 20.1875 61.101562 C 19.8125 60.367188 15 60.21875 15 60.953125 C 15 61.25 14.6875 61.445312 14.375 61.445312 C 14 61.445312 14.0625 60.855469 14.5 59.921875 Z M 14.5 59.921875 "/>
<path style=" stroke:none;fill-rule:nonzero;fill:rgb(42.745098%,42.745098%,42.745098%);fill-opacity:1;" d="M 10.125 34.410156 C 9.6875 30.476562 9.25 26.25 9.0625 24.972656 L 8.8125 22.613281 L 12.9375 22.613281 L 12.625 26.691406 C 12.5 28.90625 12 33.179688 11.625 36.128906 L 10.875 41.539062 Z M 11.75 26.644531 C 11.5625 25.21875 10.4375 24.972656 10.125 26.300781 C 10 26.742188 10.0625 27.722656 10.3125 28.414062 C 10.6875 29.59375 10.8125 29.640625 11.3125 28.855469 C 11.6875 28.363281 11.875 27.378906 11.75 26.644531 Z M 11.75 26.644531 "/>
<path style=" stroke:none;fill-rule:nonzero;fill:rgb(42.745098%,42.745098%,42.745098%);fill-opacity:1;" d="M 8.75 16.960938 C 8.75 14.746094 8.75 14.746094 10.9375 14.746094 C 13.125 14.746094 13.125 14.746094 13.125 16.960938 C 13.125 19.171875 13.125 19.171875 10.9375 19.171875 C 8.75 19.171875 8.75 19.171875 8.75 16.960938 Z M 8.75 16.960938 "/>
<path style=" stroke:none;fill-rule:nonzero;fill:rgb(42.745098%,42.745098%,42.745098%);fill-opacity:1;" d="M 8.75 7.277344 C 8.8125 2.949219 9.5 0.984375 10.9375 0.984375 C 12.375 0.984375 13.0625 2.949219 13.125 7.277344 L 13.125 11.796875 L 8.75 11.796875 Z M 8.75 7.277344 "/>
<path style=" stroke:none;fill-rule:nonzero;fill:rgb(42.745098%,42.745098%,42.745098%);fill-opacity:1;" d="M 4.375 8.355469 C 4.375 8.109375 5.0625 7.863281 5.9375 7.863281 C 6.8125 7.863281 7.5 8.109375 7.5 8.355469 C 7.5 8.652344 6.8125 8.847656 5.9375 8.847656 C 5.0625 8.847656 4.375 8.652344 4.375 8.355469 Z M 4.375 8.355469 "/>
<path style=" stroke:none;fill-rule:nonzero;fill:rgb(42.745098%,42.745098%,42.745098%);fill-opacity:1;" d="M 14.375 8.355469 C 14.375 8.109375 15.0625 7.863281 15.9375 7.863281 C 16.8125 7.863281 17.5 8.109375 17.5 8.355469 C 17.5 8.652344 16.8125 8.847656 15.9375 8.847656 C 15.0625 8.847656 14.375 8.652344 14.375 8.355469 Z M 14.375 8.355469 "/>
<path style=" stroke:none;fill-rule:nonzero;fill:rgb(79.215686%,79.215686%,79.215686%);fill-opacity:1;" d="M 7.8125 67.34375 C 8.5 67.101562 9.9375 66.902344 10.9375 66.902344 C 12 66.902344 13.375 67.101562 14.0625 67.34375 C 14.9375 67.640625 13.9375 67.789062 10.9375 67.789062 C 7.9375 67.789062 6.9375 67.640625 7.8125 67.34375 Z M 7.8125 67.34375 "/>
<path style=" stroke:none;fill-rule:nonzero;fill:rgb(79.215686%,79.215686%,79.215686%);fill-opacity:1;" d="M 3.3125 61.101562 C 3.875 61.003906 4.875 61.003906 5.5 61.101562 C 6.0625 61.25 5.5625 61.347656 4.375 61.347656 C 3.1875 61.347656 2.6875 61.25 3.3125 61.101562 Z M 3.3125 61.101562 "/>
<path style=" stroke:none;fill-rule:nonzero;fill:rgb(79.215686%,79.215686%,79.215686%);fill-opacity:1;" d="M 16.4375 61.101562 C 17 61.003906 18 61.003906 18.625 61.101562 C 19.1875 61.25 18.6875 61.347656 17.5 61.347656 C 16.3125 61.347656 15.8125 61.25 16.4375 61.101562 Z M 16.4375 61.101562 "/>
<path style=" stroke:none;fill-rule:nonzero;fill:rgb(79.215686%,79.215686%,79.215686%);fill-opacity:1;" d="M 6.25 13.273438 C 6.25 12.386719 6.6875 12.289062 10.9375 12.289062 C 15.1875 12.289062 15.625 12.386719 15.625 13.273438 C 15.625 14.15625 15.1875 14.253906 10.9375 14.253906 C 6.6875 14.253906 6.25 14.15625 6.25 13.273438 Z M 6.25 13.273438 "/>
</g>
</svg>
