<?xml version="1.0" encoding="UTF-8"?>
<svg xmlns="http://www.w3.org/2000/svg" xmlns:xlink="http://www.w3.org/1999/xlink" width="20pt" height="100pt" viewBox="0 0 20 100" version="1.1">
<g id="surface1">
<path style=" stroke:none;fill-rule:nonzero;fill:rgb(24.313725%,24.313725%,24.313725%);fill-opacity:1;" d="M 7.308594 98.707031 C 3.269531 96.886719 2.5 93.007812 1.21875 67.289062 C 0.832031 59.148438 0.640625 50.957031 0.832031 49.089844 C 1.027344 47.269531 1.476562 41.523438 1.859375 36.351562 C 3.011719 19.300781 4.421875 10.679688 7.050781 5.171875 C 9.871094 -0.765625 10.0625 -0.765625 13.074219 5.652344 C 15.449219 10.824219 16.921875 19.828125 18.015625 36.351562 C 18.398438 41.523438 18.84375 47.269531 19.039062 49.089844 C 19.230469 50.957031 19.039062 59.148438 18.65625 67.289062 C 17.371094 93.007812 16.601562 96.886719 12.566406 98.707031 C 11.472656 99.1875 10.320312 99.617188 9.9375 99.617188 C 9.617188 99.617188 8.398438 99.1875 7.308594 98.707031 Z M 7.308594 98.707031 "/>
<path style=" stroke:none;fill-rule:nonzero;fill:rgb(67.45098%,54.901961%,39.607843%);fill-opacity:1;" d="M 2.949219 85.632812 C 2.757812 83.71875 2.4375 77.824219 2.179688 72.558594 C 1.796875 63.839844 1.859375 63.074219 2.820312 63.648438 C 3.398438 63.984375 3.847656 64.703125 3.847656 65.183594 C 3.847656 65.660156 4.230469 66.234375 4.679688 66.425781 C 5.191406 66.621094 5.703125 67.195312 5.960938 67.671875 C 6.28125 68.296875 7.117188 68.488281 9.9375 68.488281 C 12.753906 68.488281 13.589844 68.296875 13.910156 67.671875 C 14.167969 67.195312 14.679688 66.621094 15.191406 66.425781 C 15.640625 66.234375 16.027344 65.660156 16.027344 65.183594 C 16.027344 64.703125 16.472656 63.984375 17.050781 63.648438 C 18.015625 63.074219 18.078125 63.839844 17.691406 72.558594 C 17.433594 77.824219 17.113281 83.71875 16.921875 85.632812 L 16.539062 89.082031 L 3.332031 89.082031 Z M 14.742188 82.613281 L 14.742188 79.023438 L 5.128906 79.023438 L 5.128906 86.207031 L 14.742188 86.207031 Z M 14.742188 74.472656 L 14.742188 70.882812 L 5.128906 70.882812 L 5.128906 78.066406 L 14.742188 78.066406 Z M 14.742188 74.472656 "/>
<path style=" stroke:none;fill-rule:nonzero;fill:rgb(67.45098%,54.901961%,39.607843%);fill-opacity:1;" d="M 2.371094 40.804688 C 2.691406 33.667969 3.847656 19.683594 4.230469 18.105469 C 4.613281 16.761719 4.613281 16.761719 9.9375 16.761719 C 16.347656 16.761719 15.707031 15.710938 16.667969 27.539062 C 17.820312 41.859375 17.882812 46.074219 16.921875 45.113281 C 16.410156 44.683594 16.027344 43.054688 16.027344 41.570312 C 16.027344 39.417969 15.832031 38.792969 15.0625 38.792969 C 14.550781 38.792969 14.101562 38.601562 14.101562 38.3125 C 14.101562 38.027344 12.308594 37.835938 9.9375 37.835938 C 7.566406 37.835938 5.769531 38.027344 5.769531 38.3125 C 5.769531 38.601562 5.320312 38.792969 4.808594 38.792969 C 4.039062 38.792969 3.847656 39.417969 3.847656 41.570312 C 3.847656 43.054688 3.460938 44.683594 2.949219 45.113281 C 2.242188 45.785156 2.179688 45.113281 2.371094 40.804688 Z M 14.742188 33.285156 L 14.742188 29.695312 L 5.128906 29.695312 L 5.128906 36.878906 L 14.742188 36.878906 Z M 14.742188 25.144531 L 14.742188 21.550781 L 5.128906 21.550781 L 5.128906 28.734375 L 14.742188 28.734375 Z M 14.742188 25.144531 "/>
<path style=" stroke:none;fill-rule:nonzero;fill:rgb(67.45098%,54.901961%,39.607843%);fill-opacity:1;" d="M 5.128906 13.601562 C 5.128906 10.488281 5.898438 8.621094 7.117188 8.621094 C 8.078125 8.621094 8.332031 8.957031 8.332031 10.25 C 8.332031 11.496094 8.078125 11.828125 7.242188 11.78125 C 6.476562 11.734375 6.089844 12.164062 5.960938 13.121094 C 5.769531 14.941406 5.128906 15.375 5.128906 13.601562 Z M 5.128906 13.601562 "/>
<path style=" stroke:none;fill-rule:nonzero;fill:rgb(67.45098%,54.901961%,39.607843%);fill-opacity:1;" d="M 6.410156 14.367188 C 6.410156 14.128906 6.984375 13.457031 7.691406 12.929688 C 8.460938 12.355469 8.972656 11.351562 8.972656 10.296875 C 8.972656 9.148438 9.292969 8.621094 9.9375 8.621094 C 10.578125 8.621094 10.898438 9.148438 10.898438 10.296875 C 10.898438 11.351562 11.410156 12.355469 12.179688 12.929688 C 14.230469 14.464844 13.71875 14.847656 9.9375 14.847656 C 8.011719 14.847656 6.410156 14.65625 6.410156 14.367188 Z M 6.410156 14.367188 "/>
<path style=" stroke:none;fill-rule:nonzero;fill:rgb(67.45098%,54.901961%,39.607843%);fill-opacity:1;" d="M 14.101562 14.128906 C 14.039062 13.601562 13.910156 12.882812 13.847656 12.5 C 13.847656 12.117188 13.332031 11.734375 12.820312 11.636719 C 11.988281 11.445312 11.988281 11.496094 12.820312 11.925781 C 13.332031 12.164062 13.527344 12.546875 13.269531 12.785156 C 12.5 13.359375 11.539062 11.925781 11.539062 10.203125 C 11.539062 8.957031 11.792969 8.621094 12.753906 8.621094 C 13.78125 8.621094 14.101562 9.101562 14.421875 11.207031 C 14.679688 12.644531 14.742188 14.128906 14.550781 14.464844 C 14.359375 14.847656 14.167969 14.703125 14.101562 14.128906 Z M 14.101562 14.128906 "/>
<path style=" stroke:none;fill-rule:nonzero;fill:rgb(48.235294%,48.235294%,48.235294%);fill-opacity:1;" d="M 7.566406 98.371094 C 5.191406 97.460938 5.320312 97.269531 7.886719 97.652344 C 8.972656 97.84375 10.898438 97.84375 12.050781 97.652344 C 14.617188 97.269531 14.679688 97.460938 12.179688 98.417969 C 9.9375 99.28125 9.742188 99.28125 7.566406 98.371094 Z M 7.566406 98.371094 "/>
<path style=" stroke:none;fill-rule:nonzero;fill:rgb(48.235294%,48.235294%,48.235294%);fill-opacity:1;" d="M 5 95.929688 C 4.679688 95.117188 4.933594 94.828125 6.023438 94.730469 C 6.859375 94.636719 7.371094 94.253906 7.371094 93.679688 C 7.371094 92.335938 5.835938 92.195312 5.191406 93.484375 C 4.613281 94.636719 4.359375 94.398438 3.652344 92.097656 C 3.332031 90.996094 3.398438 90.996094 9.9375 90.996094 C 16.472656 90.996094 16.539062 90.996094 16.21875 92.097656 C 15.511719 94.398438 15.257812 94.636719 14.679688 93.484375 C 14.039062 92.195312 12.5 92.289062 12.5 93.628906 C 12.5 94.15625 13.074219 94.636719 13.847656 94.828125 C 14.9375 95.019531 15.128906 95.257812 14.679688 96.023438 C 14.296875 96.839844 14.167969 96.839844 14.167969 96.167969 C 14.101562 95.640625 13.589844 95.304688 12.886719 95.304688 C 12.179688 95.304688 11.472656 95.019531 11.34375 94.730469 C 11.089844 94.253906 10.960938 94.253906 10.960938 94.730469 C 10.898438 95.019531 10.511719 95.304688 10 95.304688 C 9.488281 95.304688 8.910156 95.019531 8.78125 94.730469 C 8.527344 94.253906 8.398438 94.253906 8.398438 94.730469 C 8.332031 95.019531 7.757812 95.304688 7.117188 95.304688 C 6.410156 95.304688 5.769531 95.691406 5.640625 96.167969 C 5.449219 96.839844 5.320312 96.792969 5 95.929688 Z M 5 95.929688 "/>
<path style=" stroke:none;fill-rule:nonzero;fill:rgb(48.235294%,48.235294%,48.235294%);fill-opacity:1;" d="M 8.207031 95.929688 C 9.359375 95.835938 11.089844 95.835938 12.050781 95.929688 C 13.011719 96.023438 12.050781 96.121094 9.9375 96.121094 C 7.820312 96.121094 7.050781 96.023438 8.207031 95.929688 Z M 8.207031 95.929688 "/>
<path style=" stroke:none;fill-rule:nonzero;fill:rgb(48.235294%,48.235294%,48.235294%);fill-opacity:1;" d="M 6.410156 67.289062 C 6.410156 66.714844 7.242188 66.570312 9.9375 66.570312 C 12.628906 66.570312 13.460938 66.714844 13.460938 67.289062 C 13.460938 67.863281 12.628906 68.007812 9.9375 68.007812 C 7.242188 68.007812 6.410156 67.863281 6.410156 67.289062 Z M 6.410156 67.289062 "/>
<path style=" stroke:none;fill-rule:nonzero;fill:rgb(48.235294%,48.235294%,48.235294%);fill-opacity:1;" d="M 4.488281 56.753906 C 4.488281 51.003906 4.742188 47.414062 5.128906 47.414062 C 5.515625 47.414062 5.835938 50.71875 5.898438 55.699219 L 6.089844 63.9375 L 13.78125 63.9375 L 13.976562 55.699219 C 14.039062 50.71875 14.359375 47.414062 14.742188 47.414062 C 15.128906 47.414062 15.382812 51.003906 15.382812 56.753906 L 15.382812 66.09375 L 4.488281 66.09375 Z M 4.488281 56.753906 "/>
<path style=" stroke:none;fill-rule:nonzero;fill:rgb(48.235294%,48.235294%,48.235294%);fill-opacity:1;" d="M 2.371094 62.835938 C 0.960938 61.6875 1.027344 61.300781 2.5625 61.300781 C 3.527344 61.300781 3.847656 61.636719 3.847656 62.5 C 3.847656 63.9375 3.71875 63.9375 2.371094 62.835938 Z M 2.371094 62.835938 "/>
<path style=" stroke:none;fill-rule:nonzero;fill:rgb(48.235294%,48.235294%,48.235294%);fill-opacity:1;" d="M 6.410156 55.554688 C 6.410156 51.101562 6.601562 47.414062 6.921875 47.414062 C 7.179688 47.414062 7.949219 47.75 8.589844 48.132812 C 9.679688 48.753906 10 48.753906 11.28125 48.132812 C 12.113281 47.75 12.949219 47.414062 13.140625 47.414062 C 13.332031 47.414062 13.460938 51.101562 13.460938 55.554688 L 13.460938 63.699219 L 6.410156 63.699219 Z M 11.859375 59.625 C 11.859375 57.28125 11.792969 57.230469 9.9375 57.230469 C 8.140625 57.230469 8.011719 57.375 7.820312 59.097656 C 7.5 61.6875 8.011719 62.355469 10.0625 62.164062 C 11.730469 62.019531 11.859375 61.878906 11.859375 59.625 Z M 11.859375 52.441406 C 11.859375 50.097656 11.792969 50.046875 9.9375 50.046875 C 8.140625 50.046875 8.011719 50.191406 7.820312 51.914062 C 7.5 54.503906 8.011719 55.171875 10.0625 54.980469 C 11.730469 54.835938 11.859375 54.691406 11.859375 52.441406 Z M 11.859375 52.441406 "/>
<path style=" stroke:none;fill-rule:nonzero;fill:rgb(48.235294%,48.235294%,48.235294%);fill-opacity:1;" d="M 16.027344 62.59375 C 16.027344 61.636719 16.347656 61.300781 17.308594 61.300781 C 18.015625 61.300781 18.589844 61.492188 18.589844 61.6875 C 18.589844 61.925781 18.015625 62.5 17.308594 62.980469 C 16.027344 63.839844 16.027344 63.792969 16.027344 62.59375 Z M 16.027344 62.59375 "/>
<path style=" stroke:none;fill-rule:nonzero;fill:rgb(48.235294%,48.235294%,48.235294%);fill-opacity:1;" d="M 1.28125 55.316406 C 1.28125 52.585938 1.539062 50.765625 1.921875 50.765625 C 2.308594 50.765625 2.5625 52.585938 2.5625 55.316406 C 2.5625 58.046875 2.308594 59.867188 1.921875 59.867188 C 1.539062 59.867188 1.28125 58.046875 1.28125 55.316406 Z M 1.28125 55.316406 "/>
<path style=" stroke:none;fill-rule:nonzero;fill:rgb(48.235294%,48.235294%,48.235294%);fill-opacity:1;" d="M 3.460938 55.316406 C 3.460938 52.683594 3.527344 51.675781 3.652344 53.066406 C 3.78125 54.453125 3.78125 56.609375 3.652344 57.855469 C 3.527344 59.097656 3.460938 57.949219 3.460938 55.316406 Z M 3.460938 55.316406 "/>
<path style=" stroke:none;fill-rule:nonzero;fill:rgb(48.235294%,48.235294%,48.235294%);fill-opacity:1;" d="M 16.28125 55.316406 C 16.28125 52.683594 16.347656 51.675781 16.472656 53.066406 C 16.601562 54.453125 16.601562 56.609375 16.472656 57.855469 C 16.347656 59.097656 16.28125 57.949219 16.28125 55.316406 Z M 16.28125 55.316406 "/>
<path style=" stroke:none;fill-rule:nonzero;fill:rgb(48.235294%,48.235294%,48.235294%);fill-opacity:1;" d="M 17.308594 55.316406 C 17.308594 52.585938 17.5625 50.765625 17.949219 50.765625 C 18.335938 50.765625 18.589844 52.585938 18.589844 55.316406 C 18.589844 58.046875 18.335938 59.867188 17.949219 59.867188 C 17.5625 59.867188 17.308594 58.046875 17.308594 55.316406 Z M 17.308594 55.316406 "/>
<path style=" stroke:none;fill-rule:nonzero;fill:rgb(48.235294%,48.235294%,48.235294%);fill-opacity:1;" d="M 1.28125 47.894531 C 1.28125 46.359375 1.859375 46.121094 3.078125 47.03125 C 4.292969 47.941406 4.039062 49.328125 2.5625 49.328125 C 1.539062 49.328125 1.28125 48.996094 1.28125 47.894531 Z M 1.28125 47.894531 "/>
<path style=" stroke:none;fill-rule:nonzero;fill:rgb(48.235294%,48.235294%,48.235294%);fill-opacity:1;" d="M 16.027344 48.46875 C 16.027344 47.558594 17.179688 46.457031 18.078125 46.457031 C 18.335938 46.457031 18.589844 47.125 18.589844 47.894531 C 18.589844 48.996094 18.335938 49.328125 17.308594 49.328125 C 16.472656 49.328125 16.027344 48.996094 16.027344 48.46875 Z M 16.027344 48.46875 "/>
<path style=" stroke:none;fill-rule:nonzero;fill:rgb(48.235294%,48.235294%,48.235294%);fill-opacity:1;" d="M 8.910156 47.84375 C 8.269531 47.558594 8.460938 47.414062 9.808594 47.414062 C 11.667969 47.414062 12.050781 47.652344 10.703125 48.035156 C 10.191406 48.179688 9.421875 48.082031 8.910156 47.84375 Z M 8.910156 47.84375 "/>
<path style=" stroke:none;fill-rule:nonzero;fill:rgb(48.235294%,48.235294%,48.235294%);fill-opacity:1;" d="M 3.207031 45.976562 C 3.207031 45.210938 3.652344 45.019531 5.257812 45.019531 C 7.179688 45.019531 7.242188 45.019531 6.089844 45.976562 C 5.449219 46.503906 4.550781 46.933594 4.039062 46.933594 C 3.589844 46.933594 3.207031 46.503906 3.207031 45.976562 Z M 3.207031 45.976562 "/>
<path style=" stroke:none;fill-rule:nonzero;fill:rgb(48.235294%,48.235294%,48.235294%);fill-opacity:1;" d="M 6.730469 45.976562 C 7.4375 45.402344 8.71875 45.019531 9.9375 45.019531 C 11.152344 45.019531 12.433594 45.402344 13.140625 45.976562 C 14.296875 46.933594 14.230469 46.933594 9.9375 46.933594 C 5.640625 46.933594 5.578125 46.933594 6.730469 45.976562 Z M 6.730469 45.976562 "/>
<path style=" stroke:none;fill-rule:nonzero;fill:rgb(48.235294%,48.235294%,48.235294%);fill-opacity:1;" d="M 13.78125 45.976562 C 12.628906 45.019531 12.691406 45.019531 14.617188 45.019531 C 16.21875 45.019531 16.667969 45.210938 16.667969 45.976562 C 16.667969 46.503906 16.28125 46.933594 15.832031 46.933594 C 15.320312 46.933594 14.421875 46.503906 13.78125 45.976562 Z M 13.78125 45.976562 "/>
<path style=" stroke:none;fill-rule:nonzero;fill:rgb(48.235294%,48.235294%,48.235294%);fill-opacity:1;" d="M 4.488281 41.90625 L 4.488281 39.273438 L 15.382812 39.273438 L 15.382812 41.90625 C 15.382812 45.113281 14.230469 45.402344 13.976562 42.289062 L 13.78125 39.992188 L 6.089844 39.992188 L 5.898438 42.289062 C 5.640625 45.402344 4.488281 45.113281 4.488281 41.90625 Z M 4.488281 41.90625 "/>
<path style=" stroke:none;fill-rule:nonzero;fill:rgb(48.235294%,48.235294%,48.235294%);fill-opacity:1;" d="M 6.410156 42.386719 L 6.410156 40.230469 L 13.460938 40.230469 L 13.460938 42.386719 C 13.460938 44.394531 12.753906 45.164062 11.859375 44.0625 C 11.667969 43.820312 10.769531 43.582031 9.9375 43.582031 C 9.101562 43.582031 8.207031 43.820312 8.011719 44.0625 C 7.117188 45.164062 6.410156 44.394531 6.410156 42.386719 Z M 6.410156 42.386719 "/>
<path style=" stroke:none;fill-rule:nonzero;fill:rgb(48.235294%,48.235294%,48.235294%);fill-opacity:1;" d="M 8.207031 38.457031 C 9.359375 38.363281 11.089844 38.363281 12.050781 38.457031 C 13.011719 38.554688 12.050781 38.648438 9.9375 38.648438 C 7.820312 38.648438 7.050781 38.554688 8.207031 38.457031 Z M 8.207031 38.457031 "/>
<path style=" stroke:none;fill-rule:nonzero;fill:rgb(48.235294%,48.235294%,48.235294%);fill-opacity:1;" d="M 6.410156 7.949219 C 6.410156 7.566406 9.617188 1.292969 9.9375 1.054688 C 10.128906 0.910156 10.257812 0.910156 10.257812 1.007812 C 10.257812 1.101562 10.960938 2.683594 11.859375 4.5 C 12.753906 6.320312 13.460938 7.902344 13.460938 7.949219 C 13.460938 8.046875 12.886719 8.140625 12.179688 8.140625 C 11.089844 8.140625 10.898438 7.808594 10.769531 6.128906 L 10.703125 4.070312 L 10.257812 6.226562 L 9.871094 8.382812 L 9.550781 6.226562 L 9.167969 4.070312 L 9.101562 6.128906 C 8.972656 7.808594 8.78125 8.140625 7.691406 8.140625 C 6.984375 8.140625 6.410156 8.046875 6.410156 7.949219 Z M 6.410156 7.949219 "/>
<path style=" stroke:none;fill-rule:nonzero;fill:rgb(82.352941%,82.352941%,82.352941%);fill-opacity:1;" d="M 3.207031 90.039062 C 3.207031 89.75 5.898438 89.558594 9.9375 89.558594 C 13.976562 89.558594 16.667969 89.75 16.667969 90.039062 C 16.667969 90.328125 13.976562 90.515625 9.9375 90.515625 C 5.898438 90.515625 3.207031 90.328125 3.207031 90.039062 Z M 3.207031 90.039062 "/>
<path style=" stroke:none;fill-rule:nonzero;fill:rgb(82.352941%,82.352941%,82.352941%);fill-opacity:1;" d="M 4.488281 55.316406 C 4.488281 54.933594 4.808594 54.597656 5.128906 54.597656 C 5.515625 54.597656 5.769531 54.933594 5.769531 55.316406 C 5.769531 55.699219 5.515625 56.035156 5.128906 56.035156 C 4.808594 56.035156 4.488281 55.699219 4.488281 55.316406 Z M 4.488281 55.316406 "/>
<path style=" stroke:none;fill-rule:nonzero;fill:rgb(82.352941%,82.352941%,82.352941%);fill-opacity:1;" d="M 6.410156 55.410156 C 6.410156 54.980469 7.5 54.789062 9.9375 54.789062 C 12.371094 54.789062 13.460938 54.980469 13.460938 55.410156 C 13.460938 55.84375 12.371094 56.035156 9.9375 56.035156 C 7.5 56.035156 6.410156 55.84375 6.410156 55.410156 Z M 6.410156 55.410156 "/>
<path style=" stroke:none;fill-rule:nonzero;fill:rgb(82.352941%,82.352941%,82.352941%);fill-opacity:1;" d="M 14.101562 55.316406 C 14.101562 54.933594 14.421875 54.597656 14.742188 54.597656 C 15.128906 54.597656 15.382812 54.933594 15.382812 55.316406 C 15.382812 55.699219 15.128906 56.035156 14.742188 56.035156 C 14.421875 56.035156 14.101562 55.699219 14.101562 55.316406 Z M 14.101562 55.316406 "/>
<path style=" stroke:none;fill-rule:nonzero;fill:rgb(82.352941%,82.352941%,82.352941%);fill-opacity:1;" d="M 4.488281 15.804688 C 4.488281 15.515625 6.730469 15.324219 9.9375 15.324219 C 13.140625 15.324219 15.382812 15.515625 15.382812 15.804688 C 15.382812 16.09375 13.140625 16.285156 9.9375 16.285156 C 6.730469 16.285156 4.488281 16.09375 4.488281 15.804688 Z M 4.488281 15.804688 "/>
</g>
</svg>
